<?xml version="1.0" standalone="no"?>
<!DOCTYPE svg PUBLIC "-//W3C//DTD SVG 20010904//EN"
 "http://www.w3.org/TR/2001/REC-SVG-20010904/DTD/svg10.dtd">
<svg version="1.0" xmlns="http://www.w3.org/2000/svg"
 width="512.000000pt" height="512.000000pt" viewBox="0 0 512.000000 512.000000"
 preserveAspectRatio="xMidYMid meet">
<metadata>
Created by potrace 1.15, written by Peter Selinger 2001-2017
</metadata>
<g transform="translate(0.000000,512.000000) scale(0.100000,-0.100000)"
fill="#000000" stroke="none">
<circle cx="256" cy="256" r="250" fill="yellow" stroke="green" />
<path d="M2245 4780 c-273 -42 -492 -114 -725 -237 -612 -325 -1034 -903
-1160 -1589 -66 -360 -37 -758 80 -1107 50 -148 167 -390 247 -512 277 -420
691 -743 1154 -899 256 -86 444 -117 719 -118 359 0 650 65 965 216 240 115
423 245 611 431 288 287 468 591 588 995 73 248 98 623 61 900 -66 480 -287
928 -630 1274 -352 357 -781 573 -1280 647 -173 25 -460 25 -630 -1z m-559
-795 c4 -9 -10 -82 -30 -163 -69 -287 -91 -420 -75 -475 14 -52 89 -117 244
-213 28 -17 124 -78 215 -134 91 -56 215 -132 275 -168 120 -71 147 -91 140
-103 -10 -15 -183 -109 -202 -109 -10 0 -158 84 -328 186 -171 103 -330 196
-355 207 -66 30 -156 47 -193 36 -18 -5 -156 -58 -307 -119 -151 -60 -282
-110 -291 -110 -13 0 -22 16 -34 58 -9 31 -24 84 -34 117 -32 105 -44 155 -38
161 7 7 107 20 272 34 284 24 313 31 369 86 74 74 96 182 77 376 -12 120 -30
236 -47 295 -8 30 3 34 144 43 189 12 192 11 198 -5z m2033 -1 l63 -6 -5 -41
c-3 -23 -13 -82 -21 -132 -27 -151 -32 -329 -12 -400 36 -127 98 -178 232
-195 43 -5 160 -16 259 -25 187 -17 225 -23 225 -34 0 -17 -92 -327 -100 -334
-4 -5 -27 0 -51 11 -79 36 -503 204 -546 217 -43 13 -80 10 -168 -17 -22 -6
-161 -85 -310 -174 -148 -89 -337 -201 -420 -249 -686 -401 -805 -472 -1004
-603 -246 -160 -379 -269 -402 -329 -9 -25 -23 -157 -39 -359 -5 -72 -12 -137
-15 -146 -4 -11 -34 -18 -108 -27 -56 -7 -121 -15 -143 -18 -23 -3 -44 -1 -47
4 -7 12 31 159 87 338 77 243 80 301 17 368 -34 37 -56 48 -306 147 -116 46
-216 89 -223 95 -11 10 0 40 62 163 41 83 80 153 86 157 5 3 81 -47 167 -112
175 -132 294 -209 353 -229 78 -27 192 23 555 241 121 72 375 223 565 335 405
238 426 251 675 405 245 152 327 208 370 256 32 36 35 44 35 102 0 67 -30 232
-80 442 -34 140 -33 134 -31 153 1 13 103 11 280 -4z m-586 -1636 c417 -251
563 -319 638 -298 60 18 192 103 401 263 64 49 122 86 127 82 19 -11 163 -307
154 -316 -4 -4 -109 -49 -233 -99 -124 -51 -244 -103 -267 -116 -107 -62 -104
-152 16 -514 5 -14 14 -45 21 -70 7 -25 16 -58 21 -74 5 -16 9 -42 9 -58 l0
-29 -67 7 c-38 4 -104 12 -148 18 l-80 11 -7 50 c-4 28 -14 138 -23 245 -9
107 -23 209 -30 227 -36 85 -283 266 -725 529 -284 170 -275 163 -259 179 17
17 181 115 192 115 4 0 121 -68 260 -152
z
"/>
</g>
</svg>
